<svg id="Layer_1" data-name="Layer 1" xmlns="http://www.w3.org/2000/svg" viewBox="0 0 62.93 23"><defs><style>.cls-1{fill:#fff;}</style></defs><path class="cls-1" d="M8,.93h1.8l-8,21.19H0Z"/><path class="cls-1" d="M13.9.93h1.8l-8,21.19H5.91Z"/><path class="cls-1" d="M20.21,21.86l1.35-2.35a4.06,4.06,0,0,0,2.41.84c1.61,0,2.45-.88,2.89-3l1.72-8.59h-5l.56-2.6h8.25l-2.3,11.44c-.7,3.49-2.5,5.42-5.95,5.42A7,7,0,0,1,20.21,21.86ZM28.92,2.31A2.39,2.39,0,0,1,31.35,0a1.89,1.89,0,0,1,2.14,1.9A2.37,2.37,0,0,1,31,4.21,1.91,1.91,0,0,1,28.92,2.31Z"/><path class="cls-1" d="M36.88,13.23a7.25,7.25,0,0,1,7.37-7.38,5.88,5.88,0,0,1,4.65,2.2l-2,1.85A3.71,3.71,0,0,0,44,8.57c-1.87,0-3.74,1.9-3.74,4.36a2.68,2.68,0,0,0,2.88,2.86,4.69,4.69,0,0,0,3.06-1.37l1.18,2.26a6.8,6.8,0,0,1-4.72,1.84C39.51,18.52,36.88,16.76,36.88,13.23Z"/><path class="cls-1" d="M51,16.29l1.83-2.09A5.85,5.85,0,0,0,57.05,16c1.13,0,1.82-.33,1.82-1s-.6-1-2.38-1.57c-2.44-.8-3.77-1.88-3.77-3.72,0-2.56,2.39-3.88,5.1-3.88a7,7,0,0,1,5.11,2l-1.83,2a5.94,5.94,0,0,0-3.65-1.45c-1,0-1.6.33-1.6,1s.67,1,2.54,1.61c2.16.73,3.61,1.66,3.61,3.64,0,2.73-2.41,3.95-5.5,3.95A7.63,7.63,0,0,1,51,16.29Z"/></svg>